<mxfile host="65bd71144e">
    <diagram id="-tt-YELYNjDbcMdwkLdO" name="Page-1">
        <mxGraphModel dx="1413" dy="771" grid="1" gridSize="10" guides="1" tooltips="1" connect="1" arrows="1" fold="1" page="1" pageScale="1" pageWidth="827" pageHeight="1169" math="0" shadow="0">
            <root>
                <mxCell id="0"/>
                <mxCell id="1" parent="0"/>
                <mxCell id="4" value="" style="edgeStyle=none;html=1;fontSize=14;" edge="1" parent="1" source="2" target="3">
                    <mxGeometry relative="1" as="geometry"/>
                </mxCell>
                <mxCell id="2" value="&lt;font style=&quot;font-size: 24px;&quot;&gt;Text.txt&lt;/font&gt;" style="text;html=1;strokeColor=none;fillColor=none;align=center;verticalAlign=middle;whiteSpace=wrap;rounded=0;" vertex="1" parent="1">
                    <mxGeometry x="40" y="310" width="80" height="50" as="geometry"/>
                </mxCell>
                <mxCell id="14" value="" style="edgeStyle=none;html=1;fontSize=18;" edge="1" parent="1" source="3" target="13">
                    <mxGeometry relative="1" as="geometry"/>
                </mxCell>
                <mxCell id="3" value="&lt;font size=&quot;3&quot;&gt;数据处理&lt;br&gt;(data_processing.py)&lt;br&gt;&lt;/font&gt;" style="rounded=0;whiteSpace=wrap;html=1;fontSize=24;" vertex="1" parent="1">
                    <mxGeometry x="190" y="292.5" width="180" height="85" as="geometry"/>
                </mxCell>
                <mxCell id="12" value="" style="edgeStyle=none;html=1;fontSize=14;" edge="1" parent="1" source="5" target="11">
                    <mxGeometry relative="1" as="geometry"/>
                </mxCell>
                <mxCell id="5" value="&lt;font size=&quot;3&quot;&gt;模型搭建&lt;br&gt;(model.py)&lt;br&gt;&lt;/font&gt;" style="rounded=0;whiteSpace=wrap;html=1;fontSize=24;" vertex="1" parent="1">
                    <mxGeometry x="190" y="110" width="180" height="85" as="geometry"/>
                </mxCell>
                <mxCell id="7" value="" style="edgeStyle=none;html=1;fontSize=14;" edge="1" parent="1" source="6" target="5">
                    <mxGeometry relative="1" as="geometry"/>
                </mxCell>
                <mxCell id="6" value="" style="shape=curlyBracket;whiteSpace=wrap;html=1;rounded=1;flipH=1;labelPosition=right;verticalLabelPosition=middle;align=left;verticalAlign=middle;fontSize=14;" vertex="1" parent="1">
                    <mxGeometry x="140" y="92.5" width="20" height="120" as="geometry"/>
                </mxCell>
                <mxCell id="8" value="FNN" style="rounded=1;whiteSpace=wrap;html=1;fontSize=14;arcSize=30;" vertex="1" parent="1">
                    <mxGeometry x="30" y="70" width="90" height="40" as="geometry"/>
                </mxCell>
                <mxCell id="9" value="RNN" style="rounded=1;whiteSpace=wrap;html=1;fontSize=14;arcSize=30;" vertex="1" parent="1">
                    <mxGeometry x="30" y="132.5" width="90" height="40" as="geometry"/>
                </mxCell>
                <mxCell id="10" value="LSTM" style="rounded=1;whiteSpace=wrap;html=1;fontSize=14;arcSize=30;" vertex="1" parent="1">
                    <mxGeometry x="30" y="195" width="90" height="40" as="geometry"/>
                </mxCell>
                <mxCell id="20" value="" style="edgeStyle=none;html=1;fontSize=18;" edge="1" parent="1" source="11" target="15">
                    <mxGeometry relative="1" as="geometry"/>
                </mxCell>
                <mxCell id="11" value="&lt;font style=&quot;font-size: 18px;&quot;&gt;model&lt;/font&gt;" style="rounded=1;whiteSpace=wrap;html=1;fontSize=14;" vertex="1" parent="1">
                    <mxGeometry x="430" y="123" width="120" height="60" as="geometry"/>
                </mxCell>
                <mxCell id="18" style="edgeStyle=none;html=1;exitX=0.5;exitY=0;exitDx=0;exitDy=0;entryX=0.5;entryY=1;entryDx=0;entryDy=0;fontSize=18;" edge="1" parent="1" source="13" target="11">
                    <mxGeometry relative="1" as="geometry"/>
                </mxCell>
                <mxCell id="13" value="&lt;font style=&quot;font-size: 18px;&quot;&gt;dataset&lt;/font&gt;" style="rounded=1;whiteSpace=wrap;html=1;fontSize=14;" vertex="1" parent="1">
                    <mxGeometry x="430" y="305" width="120" height="60" as="geometry"/>
                </mxCell>
                <mxCell id="15" value="&lt;font size=&quot;3&quot;&gt;输出结果&lt;br&gt;(output.py)&lt;br&gt;&lt;/font&gt;" style="rounded=0;whiteSpace=wrap;html=1;fontSize=24;" vertex="1" parent="1">
                    <mxGeometry x="600" y="116.5" width="190" height="72" as="geometry"/>
                </mxCell>
                <mxCell id="19" value="模型训练" style="text;strokeColor=none;fillColor=none;html=1;fontSize=24;fontStyle=1;verticalAlign=middle;align=center;" vertex="1" parent="1">
                    <mxGeometry x="440" y="70" width="100" height="40" as="geometry"/>
                </mxCell>
            </root>
        </mxGraphModel>
    </diagram>
</mxfile>